<?xml version="1.0" encoding="UTF-8" standalone="no"?>
<svg
        version="1.1"
        id="svg1"
        width="226.772"
        height="102.047"
        xmlns="http://www.w3.org/2000/svg"
        xmlns:svg="http://www.w3.org/2000/svg">
  <g
          id="svg">
    <g
            id="g5906">
      <path
              d="M 0,0 V 102.047 H 226.772 V 0 Z m 113.029,2.081 c 0.766,0 1.387,0.621 1.387,1.387 0,0.766 -0.621,1.387 -1.387,1.387 -0.766,0 -1.387,-0.621 -1.387,-1.387 0,-0.766 0.622,-1.387 1.387,-1.387 z m -71.999,0 c 0.766,0 1.387,0.621 1.387,1.387 0,0.766 -0.621,1.387 -1.387,1.387 -0.766,0 -1.387,-0.621 -1.387,-1.387 0,-0.766 0.622,-1.387 1.387,-1.387 z m -7.2,0 c 0.766,0 1.387,0.621 1.387,1.387 0,0.766 -0.621,1.387 -1.387,1.387 -0.766,0 -1.387,-0.621 -1.387,-1.387 0,-0.766 0.621,-1.387 1.387,-1.387 z M 6.542,3.736 c 1.576,0 2.854,1.277 2.854,2.854 0,1.577 -1.278,2.853 -2.854,2.853 -1.576,0 -2.854,-1.277 -2.854,-2.853 0,-1.576 1.278,-2.854 2.854,-2.854 z m 0.003,94.603 c -1.576,0 -2.854,-1.278 -2.854,-2.854 0,-1.576 1.278,-2.854 2.854,-2.854 1.576,0 2.854,1.277 2.854,2.854 -10e-4,1.576 -1.278,2.854 -2.854,2.854 z M 19.43,4.854 c -0.766,0 -1.387,-0.621 -1.387,-1.387 0,-0.766 0.621,-1.387 1.387,-1.387 0.766,0 1.387,0.621 1.387,1.387 0,0.766 -0.622,1.387 -1.387,1.387 z m 5.813,-1.386 c 0,-0.766 0.621,-1.387 1.387,-1.387 0.766,0 1.387,0.621 1.387,1.387 0,0.766 -0.621,1.387 -1.387,1.387 -0.766,0 -1.387,-0.622 -1.387,-1.387 z M 43.219,89.84 H 26.886 v -4.816 h 16.333 z m 0,-72.817 H 26.886 v -4.816 h 16.333 z m 5.01,-12.169 c -0.766,0 -1.387,-0.621 -1.387,-1.387 0,-0.766 0.621,-1.387 1.387,-1.387 0.766,0 1.387,0.621 1.387,1.387 0,0.766 -0.621,1.387 -1.387,1.387 z m 7.201,0 c -0.766,0 -1.387,-0.621 -1.387,-1.387 0,-0.766 0.621,-1.387 1.387,-1.387 0.766,0 1.387,0.621 1.387,1.387 0,0.766 -0.622,1.387 -1.387,1.387 z m 7.2,0 c -0.766,0 -1.387,-0.621 -1.387,-1.387 0,-0.766 0.621,-1.387 1.387,-1.387 0.766,0 1.387,0.621 1.387,1.387 0,0.766 -0.621,1.387 -1.387,1.387 z m 7.2,0 c -0.766,0 -1.387,-0.621 -1.387,-1.387 0,-0.766 0.621,-1.387 1.387,-1.387 0.766,0 1.387,0.621 1.387,1.387 0,0.766 -0.621,1.387 -1.387,1.387 z m 7.199,0 c -0.766,0 -1.387,-0.621 -1.387,-1.387 0,-0.766 0.621,-1.387 1.387,-1.387 0.766,0 1.387,0.621 1.387,1.387 0,0.766 -0.621,1.387 -1.387,1.387 z m 7.2,0 c -0.766,0 -1.387,-0.621 -1.387,-1.387 0,-0.766 0.621,-1.387 1.387,-1.387 0.766,0 1.387,0.621 1.387,1.387 0,0.766 -0.621,1.387 -1.387,1.387 z m 7.201,0 c -0.766,0 -1.387,-0.621 -1.387,-1.387 0,-0.766 0.621,-1.387 1.387,-1.387 0.766,0 1.387,0.621 1.387,1.387 0,0.766 -0.622,1.387 -1.387,1.387 z m 7.2,0 c -0.766,0 -1.387,-0.621 -1.387,-1.387 0,-0.766 0.621,-1.387 1.387,-1.387 0.766,0 1.387,0.621 1.387,1.387 0,0.766 -0.621,1.387 -1.387,1.387 z m 5.812,-1.386 c 0,-0.766 0.621,-1.387 1.387,-1.387 0.766,0 1.387,0.621 1.387,1.387 0,0.766 -0.621,1.387 -1.387,1.387 -0.766,0 -1.387,-0.622 -1.387,-1.387 z m 17.111,86.372 h -16.334 v -4.816 h 16.334 z m 0,-72.817 h -16.334 v -4.816 h 16.334 z M 120.229,4.854 c -0.766,0 -1.387,-0.621 -1.387,-1.387 0,-0.766 0.621,-1.387 1.387,-1.387 0.766,0 1.387,0.621 1.387,1.387 0,0.766 -0.621,1.387 -1.387,1.387 z m 7.201,0 c -0.766,0 -1.387,-0.621 -1.387,-1.387 0,-0.766 0.621,-1.387 1.387,-1.387 0.766,0 1.387,0.621 1.387,1.387 0,0.766 -0.621,1.387 -1.387,1.387 z m 72.455,84.986 h -16.332 v -4.816 h 16.332 z m 0,-72.817 h -16.332 v -4.816 h 16.332 z M 220.208,3.731 c 1.576,0 2.854,1.277 2.854,2.854 0,1.577 -1.277,2.854 -2.854,2.854 -1.577,0 -2.855,-1.277 -2.855,-2.854 0,-1.577 1.278,-2.854 2.855,-2.854 z m 0,94.609 c -1.576,0 -2.854,-1.277 -2.854,-2.854 0,-1.575 1.277,-2.854 2.854,-2.854 1.577,0 2.855,1.278 2.855,2.854 0,1.576 -1.279,2.854 -2.855,2.854 z"
              id="path5908"
              style="fill:#1f7a34" />
      <g
              id="g5910">
        <path
                d="m 1.581,6.59 c 0,2.737 2.223,4.961 4.96,4.961 2.742,0 4.961,-2.224 4.961,-4.961 0,-2.741 -2.219,-4.96 -4.961,-4.96 -2.737,0 -4.96,2.219 -4.96,4.96 z m 2.107,0 c 0,-1.576 1.278,-2.854 2.854,-2.854 1.576,0 2.854,1.277 2.854,2.854 0,1.577 -1.279,2.853 -2.855,2.853 -1.575,0 -2.853,-1.277 -2.853,-2.853 z"
                id="path5912"
                style="fill:#9a916c" />
      </g>
      <g
              id="g5914">
        <g
                id="g5916">
          <path
                  d="m 225.168,95.486 c 0,-2.737 -2.223,-4.961 -4.961,-4.961 -2.742,0 -4.961,2.224 -4.961,4.961 0,2.741 2.219,4.96 4.961,4.96 2.739,0 4.961,-2.218 4.961,-4.96 z m -2.105,0 c 0,1.576 -1.279,2.854 -2.855,2.854 -1.576,0 -2.854,-1.277 -2.854,-2.854 0,-1.575 1.277,-2.854 2.854,-2.854 1.577,0 2.855,1.279 2.855,2.854 z"
                  id="path5918"
                  style="fill:#9a916c" />
        </g>
      </g>
      <g
              id="g5920">
        <g
                id="g5922">
          <path
                  d="m 1.584,95.485 c 0,2.737 2.223,4.961 4.96,4.961 2.742,0 4.961,-2.224 4.961,-4.961 0,-2.741 -2.219,-4.96 -4.961,-4.96 -2.737,0 -4.96,2.219 -4.96,4.96 z m 2.106,0 c 0,-1.576 1.278,-2.854 2.854,-2.854 1.576,0 2.854,1.277 2.854,2.854 0,1.575 -1.278,2.854 -2.854,2.854 -1.575,0 -2.854,-1.278 -2.854,-2.854 z"
                  id="path5924"
                  style="fill:#9a916c" />
        </g>
      </g>
      <path
              d="m 217.563,65.272 c -0.734,0 -1.336,-0.602 -1.336,-1.337 V 38.113 c 0,-0.735 0.602,-1.337 1.336,-1.337 h 0.057 v -20.05 -0.698 h -0.699 l -2.049,-2.049 V 13.266 H 214.159 12.611 11.898 v 0.713 L 9.85,16.027 H 9.151 v 0.698 20.051 h 0.057 c 0.735,0 1.337,0.602 1.337,1.337 v 25.822 c 0,0.735 -0.602,1.337 -1.337,1.337 H 9.151 v 20.049 0.698 H 9.85 l 2.049,2.049 v 0.713 h 0.713 201.547 0.713 v -0.713 l 2.049,-2.049 h 0.699 V 85.321 65.272 Z"
              id="path5926"
              style="fill:#303030" />
      <g
              id="g5928">
        <path
                d="m 208.663,71.382 c 0,2.206 -1.805,4.011 -4.012,4.011 H 22.12 c -2.206,0 -4.011,-1.805 -4.011,-4.011 V 30.665 c 0,-2.206 1.805,-4.011 4.011,-4.011 h 182.531 c 2.207,0 4.012,1.805 4.012,4.011 z"
                id="path5930"
                style="fill:#87ad34" />
        <g
                id="g5932"
                style="opacity:0.2">
          <path
                  d="m 208.655,30.646 v 40.755 c 0,-0.006 0.002,-0.012 0.002,-0.019 V 30.665 c 0,-0.007 -0.002,-0.013 -0.002,-0.019 z M 22.12,26.654 c -2.205,0 -4.011,1.806 -4.011,4.011 v 40.717 c 0,2.205 1.806,4.011 4.011,4.011 h 2.326 c -2.206,0 -4.011,-1.806 -4.011,-4.011 V 32.003 c 0,-2.206 1.805,-4.011 4.011,-4.011 h 183.165 c -0.735,-0.814 -1.787,-1.338 -2.964,-1.338 z"
                  id="path5934"
                  style="fill:#22420d" />
        </g>
      </g>
      <g
              id="g5936">
        <path
                d="m 210.358,18.618 c 0,-0.735 -0.602,-1.336 -1.336,-1.336 H 17.75 c -0.735,0 -1.336,0.602 -1.336,1.336 v 0.737 c 0,0.735 0.602,1.336 1.336,1.336 h 191.271 c 0.734,0 1.336,-0.602 1.336,-1.336 v -0.737 z"
                id="path5938"
                style="fill:#1a1a1a" />
        <path
                d="m 209.69,19.812 c 0,-0.484 -0.432,-0.88 -0.957,-0.88 H 18.117 c -0.526,0 -0.957,0.396 -0.957,0.88 0,0.484 0.431,0.88 0.957,0.88 h 190.616 c 0.525,-0.001 0.957,-0.397 0.957,-0.88 z"
                id="path5940"
                style="fill:#424242" />
      </g>
      <g
              id="g5942">
        <path
                d="m 210.358,82.056 c 0,-0.734 -0.602,-1.336 -1.336,-1.336 H 17.75 c -0.735,0 -1.336,0.602 -1.336,1.336 v 0.738 c 0,0.734 0.602,1.336 1.336,1.336 h 191.271 c 0.734,0 1.336,-0.602 1.336,-1.336 v -0.738 z"
                id="path5944"
                style="fill:#1a1a1a" />
        <path
                d="m 209.69,83.251 c 0,-0.484 -0.432,-0.88 -0.957,-0.88 H 18.117 c -0.526,0 -0.957,0.396 -0.957,0.88 0,0.483 0.431,0.879 0.957,0.879 h 190.616 c 0.525,0 0.957,-0.396 0.957,-0.879 z"
                id="path5946"
                style="fill:#424242" />
      </g>
      <g
              id="g5948">
        <line
                y1="16.173"
                x1="9.9370003"
                y2="14.06"
                x2="12.05"
                id="line5950"
                style="fill:none;stroke:#f2f2f2;stroke-width:0.2358;stroke-linecap:round;stroke-opacity:0.2" />
        <line
                y1="87.976997"
                x1="12.072"
                y2="85.862999"
                x2="9.9589996"
                id="line5952"
                style="fill:none;stroke:#f2f2f2;stroke-width:0.2358;stroke-linecap:round;stroke-opacity:0.2" />
      </g>
      <g
              id="g5954">
        <line
                y1="16.173"
                x1="216.823"
                y2="14.06"
                x2="214.709"
                id="line5956"
                style="fill:none;stroke:#f2f2f2;stroke-width:0.2358;stroke-linecap:round;stroke-opacity:0.2" />
        <line
                y1="87.976997"
                x1="214.688"
                y2="85.862999"
                x2="216.80099"
                id="line5958"
                style="fill:none;stroke:#f2f2f2;stroke-width:0.2358;stroke-linecap:round;stroke-opacity:0.2" />
      </g>
      <path
              d="m 208.657,71.382 c 0,2.205 -1.805,4.011 -4.01,4.011 H 22.12 c -2.205,0 -4.011,-1.806 -4.011,-4.011 V 30.665 c 0,-2.205 1.806,-4.011 4.011,-4.011 h 182.527 c 2.205,0 4.01,1.806 4.01,4.011 z"
              id="path5960"
              style="fill:none;stroke:#1a1a1a;stroke-width:1.415;stroke-opacity:0.4" />
      <g
              id="g5962">
        <path
                d="m 215.247,6.585 c 0,2.737 2.223,4.961 4.961,4.961 2.742,0 4.961,-2.224 4.961,-4.961 0,-2.741 -2.219,-4.96 -4.961,-4.96 -2.739,0 -4.961,2.219 -4.961,4.96 z m 2.105,0 c 0,-1.576 1.279,-2.854 2.855,-2.854 1.576,0 2.854,1.277 2.854,2.854 0,1.577 -1.277,2.854 -2.854,2.854 -1.577,0 -2.855,-1.278 -2.855,-2.854 z"
                id="path5964"
                style="fill:#9a916c" />
      </g>
      <g
              id="g5966">
        <path
                d="m 17.02,0 v 4.75 c 0,1.33 1.078,2.41 2.41,2.41 1.33,0 2.41,-1.08 2.41,-2.41 V 0 Z m 2.41,4.854 c -0.766,0 -1.387,-0.621 -1.387,-1.387 0,-0.766 0.621,-1.387 1.387,-1.387 0.766,0 1.387,0.621 1.387,1.387 0,0.766 -0.622,1.387 -1.387,1.387 z"
                id="path5968"
                style="fill:#9a916c" />
      </g>
      <g
              id="g5970">
        <path
                d="m 24.22,0 v 4.75 c 0,1.33 1.078,2.41 2.41,2.41 1.33,0 2.41,-1.08 2.41,-2.41 V 0 Z m 2.41,4.854 c -0.766,0 -1.387,-0.621 -1.387,-1.387 0,-0.766 0.621,-1.387 1.387,-1.387 0.766,0 1.387,0.621 1.387,1.387 0,0.766 -0.621,1.387 -1.387,1.387 z"
                id="path5972"
                style="fill:#9a916c" />
      </g>
      <g
              id="g5974">
        <path
                d="m 31.42,0 v 4.75 c 0,1.33 1.078,2.41 2.41,2.41 1.33,0 2.41,-1.08 2.41,-2.41 V 0 Z m 2.41,4.854 c -0.766,0 -1.387,-0.621 -1.387,-1.387 0,-0.766 0.621,-1.387 1.387,-1.387 0.766,0 1.387,0.621 1.387,1.387 0,0.766 -0.621,1.387 -1.387,1.387 z"
                id="path5976"
                style="fill:#9a916c" />
      </g>
      <g
              id="g5978">
        <path
                d="m 38.62,0 v 4.75 c 0,1.33 1.078,2.41 2.41,2.41 1.33,0 2.41,-1.08 2.41,-2.41 V 0 Z m 2.41,4.854 c -0.766,0 -1.387,-0.621 -1.387,-1.387 0,-0.766 0.621,-1.387 1.387,-1.387 0.766,0 1.387,0.621 1.387,1.387 0,0.766 -0.621,1.387 -1.387,1.387 z"
                id="path5980"
                style="fill:#9a916c" />
      </g>
      <g
              id="g5982">
        <path
                d="m 45.819,0 v 4.75 c 0,1.33 1.078,2.41 2.41,2.41 1.33,0 2.41,-1.08 2.41,-2.41 V 0 Z m 2.41,4.854 c -0.766,0 -1.387,-0.621 -1.387,-1.387 0,-0.766 0.621,-1.387 1.387,-1.387 0.766,0 1.387,0.621 1.387,1.387 0,0.766 -0.621,1.387 -1.387,1.387 z"
                id="path5984"
                style="fill:#9a916c" />
      </g>
      <g
              id="g5986">
        <path
                d="m 53.02,0 v 4.75 c 0,1.33 1.078,2.41 2.41,2.41 1.33,0 2.41,-1.08 2.41,-2.41 V 0 Z m 2.41,4.854 c -0.766,0 -1.387,-0.621 -1.387,-1.387 0,-0.766 0.621,-1.387 1.387,-1.387 0.766,0 1.387,0.621 1.387,1.387 0,0.766 -0.622,1.387 -1.387,1.387 z"
                id="path5988"
                style="fill:#9a916c" />
      </g>
      <g
              id="g5990">
        <path
                d="m 60.22,0 v 4.75 c 0,1.33 1.078,2.41 2.41,2.41 1.33,0 2.41,-1.08 2.41,-2.41 V 0 Z m 2.41,4.854 c -0.766,0 -1.387,-0.621 -1.387,-1.387 0,-0.766 0.621,-1.387 1.387,-1.387 0.766,0 1.387,0.621 1.387,1.387 0,0.766 -0.621,1.387 -1.387,1.387 z"
                id="path5992"
                style="fill:#9a916c" />
      </g>
      <g
              id="g5994">
        <path
                d="m 67.42,0 v 4.75 c 0,1.33 1.078,2.41 2.41,2.41 1.33,0 2.41,-1.08 2.41,-2.41 V 0 Z m 2.41,4.854 c -0.766,0 -1.387,-0.621 -1.387,-1.387 0,-0.766 0.621,-1.387 1.387,-1.387 0.766,0 1.387,0.621 1.387,1.387 0,0.766 -0.621,1.387 -1.387,1.387 z"
                id="path5996"
                style="fill:#9a916c" />
      </g>
      <g
              id="g5998">
        <path
                d="m 74.619,0 v 4.75 c 0,1.33 1.078,2.41 2.41,2.41 1.33,0 2.41,-1.08 2.41,-2.41 V 0 Z m 2.41,4.854 c -0.766,0 -1.387,-0.621 -1.387,-1.387 0,-0.766 0.621,-1.387 1.387,-1.387 0.766,0 1.387,0.621 1.387,1.387 0,0.766 -0.621,1.387 -1.387,1.387 z"
                id="path6000"
                style="fill:#9a916c" />
      </g>
      <g
              id="g6002">
        <path
                d="m 81.819,0 v 4.75 c 0,1.33 1.078,2.41 2.41,2.41 1.33,0 2.41,-1.08 2.41,-2.41 V 0 Z m 2.41,4.854 c -0.766,0 -1.387,-0.621 -1.387,-1.387 0,-0.766 0.621,-1.387 1.387,-1.387 0.766,0 1.387,0.621 1.387,1.387 0,0.766 -0.621,1.387 -1.387,1.387 z"
                id="path6004"
                style="fill:#9a916c" />
      </g>
      <g
              id="g6006">
        <path
                d="m 89.02,0 v 4.75 c 0,1.33 1.078,2.41 2.41,2.41 1.33,0 2.41,-1.08 2.41,-2.41 V 0 Z m 2.41,4.854 c -0.766,0 -1.387,-0.621 -1.387,-1.387 0,-0.766 0.621,-1.387 1.387,-1.387 0.766,0 1.387,0.621 1.387,1.387 0,0.766 -0.622,1.387 -1.387,1.387 z"
                id="path6008"
                style="fill:#9a916c" />
      </g>
      <g
              id="g6010">
        <path
                d="m 96.22,0 v 4.75 c 0,1.33 1.078,2.41 2.41,2.41 1.33,0 2.41,-1.08 2.41,-2.41 V 0 Z m 2.41,4.854 c -0.766,0 -1.387,-0.621 -1.387,-1.387 0,-0.766 0.621,-1.387 1.387,-1.387 0.766,0 1.387,0.621 1.387,1.387 0,0.766 -0.621,1.387 -1.387,1.387 z"
                id="path6012"
                style="fill:#9a916c" />
      </g>
      <g
              id="g6014">
        <path
                d="m 103.419,0 v 4.75 c 0,1.33 1.078,2.41 2.41,2.41 1.33,0 2.41,-1.08 2.41,-2.41 V 0 Z m 2.41,4.854 c -0.766,0 -1.387,-0.621 -1.387,-1.387 0,-0.766 0.621,-1.387 1.387,-1.387 0.766,0 1.387,0.621 1.387,1.387 0,0.766 -0.621,1.387 -1.387,1.387 z"
                id="path6016"
                style="fill:#9a916c" />
      </g>
      <g
              id="g6018">
        <path
                d="m 110.619,0 v 4.75 c 0,1.33 1.078,2.41 2.41,2.41 1.33,0 2.411,-1.08 2.411,-2.41 V 0 Z m 2.41,4.854 c -0.766,0 -1.387,-0.621 -1.387,-1.387 0,-0.766 0.621,-1.387 1.387,-1.387 0.766,0 1.387,0.621 1.387,1.387 0,0.766 -0.621,1.387 -1.387,1.387 z"
                id="path6020"
                style="fill:#9a916c" />
      </g>
      <g
              id="g6022">
        <path
                d="m 117.819,0 v 4.75 c 0,1.33 1.078,2.41 2.41,2.41 1.33,0 2.41,-1.08 2.41,-2.41 V 0 Z m 2.41,4.854 c -0.766,0 -1.387,-0.621 -1.387,-1.387 0,-0.766 0.621,-1.387 1.387,-1.387 0.766,0 1.387,0.621 1.387,1.387 0,0.766 -0.621,1.387 -1.387,1.387 z"
                id="path6024"
                style="fill:#9a916c" />
      </g>
      <g
              id="g6026">
        <path
                d="m 125.02,0 v 4.75 c 0,1.33 1.078,2.41 2.41,2.41 1.33,0 2.41,-1.08 2.41,-2.41 V 0 Z m 2.41,4.854 c -0.766,0 -1.387,-0.621 -1.387,-1.387 0,-0.766 0.621,-1.387 1.387,-1.387 0.766,0 1.387,0.621 1.387,1.387 0,0.766 -0.621,1.387 -1.387,1.387 z"
                id="path6028"
                style="fill:#9a916c" />
      </g>
      <g
              id="g6030">
        <rect
                width="10.027"
                x="27.790001"
                y="51.369999"
                height="16.521999"
                id="rect6032"
                style="fill:#1a1a1a;fill-opacity:0.1" />
        <rect
                width="10.027"
                x="38.534"
                y="51.369999"
                height="16.521999"
                id="rect6034"
                style="fill:#1a1a1a;fill-opacity:0.1" />
        <rect
                width="10.027"
                x="49.278"
                y="51.369999"
                height="16.521999"
                id="rect6036"
                style="fill:#1a1a1a;fill-opacity:0.1" />
        <rect
                width="10.028"
                x="60.021999"
                y="51.369999"
                height="16.521999"
                id="rect6038"
                style="fill:#1a1a1a;fill-opacity:0.1" />
        <rect
                width="10.027"
                x="70.767998"
                y="51.369999"
                height="16.521999"
                id="rect6040"
                style="fill:#1a1a1a;fill-opacity:0.1" />
        <rect
                width="10.027"
                x="81.512001"
                y="51.369999"
                height="16.521999"
                id="rect6042"
                style="fill:#1a1a1a;fill-opacity:0.1" />
        <rect
                width="10.027"
                x="92.255997"
                y="51.369999"
                height="16.521999"
                id="rect6044"
                style="fill:#1a1a1a;fill-opacity:0.1" />
        <rect
                width="10.027"
                x="103"
                y="51.369999"
                height="16.521999"
                id="rect6046"
                style="fill:#1a1a1a;fill-opacity:0.1" />
        <rect
                width="10.028"
                x="113.744"
                y="51.369999"
                height="16.521999"
                id="rect6048"
                style="fill:#1a1a1a;fill-opacity:0.1" />
        <rect
                width="10.027"
                x="124.489"
                y="51.369999"
                height="16.521999"
                id="rect6050"
                style="fill:#1a1a1a;fill-opacity:0.1" />
        <rect
                width="10.027"
                x="135.233"
                y="51.369999"
                height="16.521999"
                id="rect6052"
                style="fill:#1a1a1a;fill-opacity:0.1" />
        <rect
                width="10.027"
                x="145.97701"
                y="51.369999"
                height="16.521999"
                id="rect6054"
                style="fill:#1a1a1a;fill-opacity:0.1" />
        <rect
                width="10.027"
                x="156.72099"
                y="51.369999"
                height="16.521999"
                id="rect6056"
                style="fill:#1a1a1a;fill-opacity:0.1" />
        <rect
                width="10.027"
                x="167.465"
                y="51.369999"
                height="16.521999"
                id="rect6058"
                style="fill:#1a1a1a;fill-opacity:0.1" />
        <rect
                width="10.027"
                x="178.209"
                y="51.369999"
                height="16.521999"
                id="rect6060"
                style="fill:#1a1a1a;fill-opacity:0.1" />
        <rect
                width="10.027"
                x="188.95399"
                y="51.369999"
                height="16.521999"
                id="rect6062"
                style="fill:#1a1a1a;fill-opacity:0.1" />
        <rect
                width="10.027"
                x="27.790001"
                y="34.153999"
                height="16.521999"
                id="rect6064"
                style="fill:#1a1a1a;fill-opacity:0.1" />
        <rect
                width="10.027"
                x="38.534"
                y="34.153999"
                height="16.521999"
                id="rect6066"
                style="fill:#1a1a1a;fill-opacity:0.1" />
        <rect
                width="10.027"
                x="49.278"
                y="34.153999"
                height="16.521999"
                id="rect6068"
                style="fill:#1a1a1a;fill-opacity:0.1" />
        <rect
                width="10.028"
                x="60.021999"
                y="34.153999"
                height="16.521999"
                id="rect6070"
                style="fill:#1a1a1a;fill-opacity:0.1" />
        <rect
                width="10.027"
                x="70.767998"
                y="34.153999"
                height="16.521999"
                id="rect6072"
                style="fill:#1a1a1a;fill-opacity:0.1" />
        <rect
                width="10.027"
                x="81.512001"
                y="34.153999"
                height="16.521999"
                id="rect6074"
                style="fill:#1a1a1a;fill-opacity:0.1" />
        <rect
                width="10.027"
                x="92.255997"
                y="34.153999"
                height="16.521999"
                id="rect6076"
                style="fill:#1a1a1a;fill-opacity:0.1" />
        <rect
                width="10.027"
                x="103"
                y="34.153999"
                height="16.521999"
                id="rect6078"
                style="fill:#1a1a1a;fill-opacity:0.1" />
        <rect
                width="10.028"
                x="113.744"
                y="34.153999"
                height="16.521999"
                id="rect6080"
                style="fill:#1a1a1a;fill-opacity:0.1" />
        <rect
                width="10.027"
                x="124.489"
                y="34.153999"
                height="16.521999"
                id="rect6082"
                style="fill:#1a1a1a;fill-opacity:0.1" />
        <rect
                width="10.027"
                x="135.233"
                y="34.153999"
                height="16.521999"
                id="rect6084"
                style="fill:#1a1a1a;fill-opacity:0.1" />
        <rect
                width="10.027"
                x="145.97701"
                y="34.153999"
                height="16.521999"
                id="rect6086"
                style="fill:#1a1a1a;fill-opacity:0.1" />
        <rect
                width="10.027"
                x="156.72099"
                y="34.153999"
                height="16.521999"
                id="rect6088"
                style="fill:#1a1a1a;fill-opacity:0.1" />
        <rect
                width="10.027"
                x="167.465"
                y="34.153999"
                height="16.521999"
                id="rect6090"
                style="fill:#1a1a1a;fill-opacity:0.1" />
        <rect
                width="10.027"
                x="178.209"
                y="34.153999"
                height="16.521999"
                id="rect6092"
                style="fill:#1a1a1a;fill-opacity:0.1" />
        <rect
                width="10.027"
                x="188.95399"
                y="34.153999"
                height="16.521999"
                id="rect6094"
                style="fill:#1a1a1a;fill-opacity:0.1" />
      </g>
      <g
              id="g6096">
        <path
                d="M 9.454,65.223 V 86.02 H 9.722 V 65.168 c -0.083,0.035 -0.178,0.037 -0.268,0.055 z"
                id="path6098"
                style="fill:#606060" />
        <path
                d="M 9.722,36.881 V 16.026 H 9.454 v 20.8 c 0.09,0.018 0.185,0.02 0.268,0.055 z"
                id="path6100"
                style="fill:#606060" />
      </g>
      <rect
              width="202.96899"
              x="11.9"
              y="13.572"
              height="0.26699999"
              id="rect6102"
              style="fill:#606060" />
      <rect
              width="202.96899"
              x="11.9"
              y="13.27"
              height="0.30399999"
              id="rect6104"
              style="fill:#212121" />
      <g
              id="g6106">
        <path
                d="m 9.208,36.776 c 0.087,0 0.164,0.034 0.247,0.05 v -20.8 H 9.152 v 20.75 z"
                id="path6108"
                style="fill:#212121" />
        <path
                d="M 9.208,65.272 H 9.152 V 86.02 H 9.455 V 65.222 c -0.083,0.016 -0.16,0.05 -0.247,0.05 z"
                id="path6110"
                style="fill:#212121" />
      </g>
      <rect
              width="202.96899"
              x="11.9"
              y="88.480003"
              height="0.303"
              id="rect6112"
              style="fill:#212121" />
      <rect
              width="202.96899"
              x="11.9"
              y="88.214996"
              height="0.26699999"
              id="rect6114"
              style="fill:#606060" />
      <g
              id="g6116">
        <path
                d="m 217.563,65.272 c -0.089,0 -0.166,-0.034 -0.25,-0.051 V 86.02 h 0.305 V 65.272 Z"
                id="path6118"
                style="fill:#212121" />
        <path
                d="m 217.563,36.776 h 0.055 v -20.75 h -0.305 v 20.801 c 0.084,-0.016 0.161,-0.051 0.25,-0.051 z"
                id="path6120"
                style="fill:#212121" />
      </g>
      <g
              id="g6122">
        <path
                d="M 217.049,65.168 V 86.02 h 0.266 V 65.222 c -0.089,-0.017 -0.184,-0.019 -0.266,-0.054 z"
                id="path6124"
                style="fill:#606060" />
        <path
                d="m 217.315,36.827 v -20.8 h -0.266 v 20.854 c 0.082,-0.035 0.177,-0.037 0.266,-0.054 z"
                id="path6126"
                style="fill:#606060" />
      </g>
    </g>
    <circle
            cx="19.43"
            cy="3.4679999"
            id="circle6128"
            r="1.387" />
    <circle
            cx="26.629999"
            cy="3.4679999"
            id="circle6130"
            r="1.387" />
    <circle
            cx="33.830002"
            cy="3.4679999"
            id="circle6132"
            r="1.387" />
    <circle
            cx="41.029999"
            cy="3.4679999"
            id="circle6134"
            r="1.387" />
    <circle
            cx="48.229"
            cy="3.4679999"
            id="circle6136"
            r="1.387" />
    <circle
            cx="55.43"
            cy="3.4679999"
            id="circle6138"
            r="1.387" />
    <path
            id="connector6pin"
            d="m 61.243,3.468 c 0,-0.766 0.621,-1.387 1.387,-1.387 0.766,0 1.387,0.621 1.387,1.387 0,0.766 -0.621,1.387 -1.387,1.387 -0.766,0 -1.387,-0.622 -1.387,-1.387" />
    <circle
            cx="69.830002"
            cy="3.4679999"
            id="connector7pin"
            r="1.387" />
    <circle
            cx="77.028999"
            cy="3.4679999"
            id="connector8pin"
            r="1.387" />
    <circle
            cx="84.228996"
            cy="3.4679999"
            id="connector9pin"
            r="1.387" />
    <circle
            cx="91.43"
            cy="3.4679999"
            id="connector10pin"
            r="1.387" />
    <circle
            cx="98.629997"
            cy="3.4679999"
            id="connector11pin"
            r="1.387" />
    <circle
            cx="105.829"
            cy="3.4679999"
            id="connector12pin"
            r="1.387" />
    <circle
            cx="113.029"
            cy="3.4679999"
            id="connector13pin"
            r="1.387" />
    <circle
            cx="120.229"
            cy="3.4679999"
            id="connector14pin"
            r="1.387" />
    <circle
            cx="127.43"
            cy="3.4679999"
            id="connector15pin"
            r="1.387" />
  </g>
</svg>
