<?xml version="1.0" encoding="UTF-8"?>
<svg version="1.1" viewBox="0 0 24 24" xmlns="http://www.w3.org/2000/svg">
 <path d="m22.039 12.792c-0.40511-0.45294-0.40511-1.1309 0-1.5838l1.5634-1.7278c0.35344-0.38726 0.41263-0.95412 0.14657-1.4038l-2.4429-4.1514c-0.2633-0.44908-0.79036-0.68135-1.3069-0.57592l-2.2963 0.45594c-0.60469 0.12277-1.2076-0.21708-1.4047-0.79189l-0.74508-2.1957c-0.16803-0.48873-0.63527-0.81725-1.1604-0.81589h-4.8858c-0.54738-0.028062-1.0468 0.30552-1.2214 0.81589l-0.68401 2.1957c-0.19715 0.57481-0.80001 0.91466-1.4047 0.79189l-2.3574-0.45594c-0.48815-0.067757-0.9699 0.1594-1.2214 0.57592l-2.4429 4.1514c-0.27271 0.44462-0.22343 1.0111 0.12214 1.4038l1.5512 1.7278c0.40511 0.45294 0.40511 1.1309 0 1.5838l-1.5512 1.7278c-0.34557 0.39271-0.39485 0.95918-0.12214 1.4038l2.4429 4.1514c0.2633 0.44908 0.79036 0.68135 1.3069 0.57592l2.2963-0.45594c0.60469-0.12278 1.2076 0.21708 1.4047 0.79189l0.74508 2.1957c0.17464 0.51037 0.67402 0.84395 1.2214 0.81589h4.8858c0.52513 0.0014 0.99237-0.32716 1.1604-0.81589l0.74508-2.1957c0.19715-0.57481 0.80001-0.91466 1.4047-0.79189l2.2963 0.45594c0.51654 0.10543 1.0436-0.12684 1.3069-0.57592l2.4429-4.1514c0.26606-0.44968 0.20687-1.0165-0.14657-1.4038zm-1.82 1.6078 0.97716 1.0799-1.5634 2.6636-1.4413-0.28796c-1.8209-0.36566-3.6321 0.66575-4.214 2.3997l-0.46415 1.3438h-3.1269l-0.43972-1.3678c-0.58185-1.7339-2.3931-2.7654-4.214-2.3997l-1.4413 0.28796-1.5879-2.6516 0.97716-1.0799c1.2441-1.3664 1.2441-3.4329 0-4.7993l-0.97716-1.0799 1.5634-2.6396 1.4413 0.28796c1.8209 0.36566 3.6321-0.66575 4.214-2.3997l0.46415-1.3558h3.1269l0.46415 1.3678c0.58185 1.7339 2.3931 2.7654 4.214 2.3997l1.4413-0.28796 1.5634 2.6636-0.97716 1.0799c-1.2297 1.3626-1.2297 3.4128 0 4.7754z" stroke-width="1.2106"/>
</svg>
