<?xml version="1.0" encoding="UTF-8"?>
<svg version="1.1" viewBox="0 0 24 24" xmlns="http://www.w3.org/2000/svg">
 <path d="m22.039 12.792c-0.40509-0.45295-0.40509-1.1308 0-1.5838l1.5634-1.7278c0.35344-0.38727 0.41262-0.95413 0.14657-1.4038l-2.4429-4.1514c-0.26331-0.44909-0.7904-0.68136-1.3069-0.57592l-2.2963 0.45594c-0.60468 0.12273-1.2075-0.21712-1.4047-0.79189l-0.74508-2.1957c-0.16804-0.48871-0.63525-0.81722-1.1604-0.81589h-4.8858c-0.54739-0.028066-1.0468 0.30551-1.2214 0.81589l-0.68401 2.1957c-0.19716 0.57477-0.79998 0.91462-1.4047 0.79189l-2.3574-0.45594c-0.48816-0.067762-0.96993 0.1594-1.2214 0.57592l-2.4429 4.1514c-0.27271 0.44462-0.22342 1.0111 0.12214 1.4038l1.5512 1.7278c0.40509 0.45295 0.40509 1.1308 0 1.5838l-1.5512 1.7278c-0.34556 0.39272-0.39485 0.95918-0.12214 1.4038l2.4429 4.1514c0.26331 0.44909 0.7904 0.68136 1.3069 0.57592l2.2963-0.45594c0.60468-0.12273 1.2075 0.21712 1.4047 0.79189l0.74508 2.1957c0.17466 0.51038 0.67405 0.84396 1.2214 0.81589h4.8858c0.52512 0.0013 0.99234-0.32718 1.1604-0.81589l0.74508-2.1957c0.19716-0.57478 0.79998-0.91462 1.4047-0.79189l2.2963 0.45594c0.51655 0.10544 1.0436-0.12683 1.3069-0.57592l2.4429-4.1514c0.26605-0.44968 0.20686-1.0165-0.14657-1.4038zm-1.82 1.6078 0.97716 1.0799-1.5634 2.6636-1.4413-0.28796c-1.8209-0.36563-3.6321 0.66576-4.214 2.3997l-0.46415 1.3438h-3.1269l-0.43972-1.3678c-0.58187-1.7339-2.3931-2.7653-4.214-2.3997l-1.4413 0.28796-1.5879-2.6516 0.97716-1.0799c1.2441-1.3664 1.2441-3.433 0-4.7993l-0.97716-1.0799 1.5634-2.6396 1.4413 0.28796c1.8209 0.36563 3.6321-0.66576 4.214-2.3997l0.46415-1.3558h3.1269l0.46415 1.3678c0.58187 1.7339 2.3931 2.7653 4.214 2.3997l1.4413-0.28796 1.5634 2.6636-0.97716 1.0799c-1.2296 1.3626-1.2296 3.4127 0 4.7754z" stroke-width="1.2106"/>
 <path transform="translate(1.7952e-6 -.36612)" d="m12 7.6602-5.1191 5.5078 1.0352 1.1133 3.3535-3.6094v6.7559h1.4609v-6.7559l3.3535 3.6094 1.0352-1.1133z" fill="none" stroke="#000" stroke-width="1.517"/>
</svg>
